<svg width="550" height="380" viewBox="0 0 550 380" fill="none" xmlns="http://www.w3.org/2000/svg">
<g filter="url(#filter0_d_1050_701)">
<rect x="75" y="107.5" width="155" height="62" rx="16" fill="white"/>
</g>
<path d="M98.46 149.69H99.802V147.754H98.636C97.536 147.754 97.074 147.27 97.074 146.126V141.528C97.074 140.34 96.612 139.878 95.974 139.768V139.636C96.612 139.526 97.074 139.064 97.074 137.876V133.278C97.074 132.156 97.536 131.65 98.636 131.65H99.802V129.714H98.46C96.304 129.714 94.808 130.726 94.808 133.102V137.744C94.808 138.36 94.5 138.734 93.884 138.734H93.18V140.67H93.884C94.5 140.67 94.808 141.044 94.808 141.66V146.302C94.808 148.678 96.304 149.69 98.46 149.69ZM106.923 146.5H109.783L111.367 134.378H111.499L113.083 146.5H115.965L118.055 131.1H115.833L114.447 143.222H114.293L112.775 131.1H110.091L108.573 143.222H108.441L107.033 131.1H104.811L106.923 146.5ZM126.584 146.786C130.126 146.786 132.678 144.19 132.678 140.758C132.678 137.326 130.148 134.708 126.606 134.708C123.086 134.708 120.534 137.304 120.534 140.758C120.534 144.212 123.064 146.786 126.584 146.786ZM126.584 144.696C124.428 144.696 122.888 143.046 122.888 140.758C122.888 138.492 124.406 136.82 126.584 136.82C128.762 136.82 130.324 138.47 130.324 140.758C130.324 143.024 128.762 144.696 126.584 144.696ZM145.013 137.216H147.037V134.972H145.079C143.429 134.972 142.351 136.072 141.999 136.996H141.845V134.994H136.851V136.886H139.623V144.608H136.543V146.5H146.795V144.608H141.933V140.824C141.933 138.69 143.055 137.216 145.013 137.216ZM158.911 146.5H161.661V144.542H159.263C158.053 144.542 157.591 143.882 157.591 142.782V136.886H162.079V134.994H157.591V131.738H155.413V134.268C155.413 134.73 155.126 135.016 154.731 135.016H151.827V136.886H155.28V142.848C155.28 145.246 156.644 146.5 158.911 146.5ZM172.126 146.786C174.722 146.786 177.252 144.96 177.252 141.814V135.786C177.252 132.64 174.722 130.814 172.126 130.814C169.552 130.814 167.022 132.64 167.022 135.786V141.814C167.022 144.96 169.552 146.786 172.126 146.786ZM172.126 144.542C170.52 144.542 169.354 143.354 169.354 141.682V135.918C169.354 134.268 170.52 133.058 172.126 133.058C173.732 133.058 174.898 134.268 174.898 135.918V141.682C174.898 143.354 173.754 144.542 172.126 144.542ZM172.148 139.944C172.808 139.944 173.336 139.416 173.336 138.756C173.336 138.096 172.808 137.568 172.148 137.568C171.488 137.568 170.938 138.096 170.938 138.756C170.938 139.416 171.488 139.944 172.148 139.944ZM188.179 144.388V131.1H186.001C186.001 132.662 185.011 133.344 182.151 133.344V135.17H185.825V144.388H182.371V146.5H192.469V144.388H188.179ZM199.15 149.69H200.492C202.648 149.69 204.144 148.678 204.144 146.302V141.66C204.144 141.044 204.452 140.67 205.09 140.67H205.772V138.734H205.09C204.452 138.734 204.144 138.36 204.144 137.744V133.102C204.144 130.726 202.648 129.714 200.492 129.714H199.15V131.65H200.316C201.416 131.65 201.9 132.156 201.9 133.278V137.876C201.9 139.064 202.362 139.526 202.978 139.636V139.768C202.362 139.878 201.9 140.34 201.9 141.528V146.126C201.9 147.27 201.416 147.754 200.316 147.754H199.15V149.69Z" fill="#222C50"/>
<g filter="url(#filter1_d_1050_701)">
<rect x="185" y="261.5" width="155" height="62" rx="16" fill="white"/>
</g>
<path d="M208.46 303.69H209.802V301.754H208.636C207.536 301.754 207.074 301.27 207.074 300.126V295.528C207.074 294.34 206.612 293.878 205.974 293.768V293.636C206.612 293.526 207.074 293.064 207.074 291.876V287.278C207.074 286.156 207.536 285.65 208.636 285.65H209.802V283.714H208.46C206.304 283.714 204.808 284.726 204.808 287.102V291.744C204.808 292.36 204.5 292.734 203.884 292.734H203.18V294.67H203.884C204.5 294.67 204.808 295.044 204.808 295.66V300.302C204.808 302.678 206.304 303.69 208.46 303.69ZM216.923 300.5H219.783L221.367 288.378H221.499L223.083 300.5H225.965L228.055 285.1H225.833L224.447 297.222H224.293L222.775 285.1H220.091L218.573 297.222H218.441L217.033 285.1H214.811L216.923 300.5ZM236.584 300.786C240.126 300.786 242.678 298.19 242.678 294.758C242.678 291.326 240.148 288.708 236.606 288.708C233.086 288.708 230.534 291.304 230.534 294.758C230.534 298.212 233.064 300.786 236.584 300.786ZM236.584 298.696C234.428 298.696 232.888 297.046 232.888 294.758C232.888 292.492 234.406 290.82 236.584 290.82C238.762 290.82 240.324 292.47 240.324 294.758C240.324 297.024 238.762 298.696 236.584 298.696ZM255.013 291.216H257.037V288.972H255.079C253.429 288.972 252.351 290.072 251.999 290.996H251.845V288.994H246.851V290.886H249.623V298.608H246.543V300.5H256.795V298.608H251.933V294.824C251.933 292.69 253.055 291.216 255.013 291.216ZM268.911 300.5H271.661V298.542H269.263C268.053 298.542 267.591 297.882 267.591 296.782V290.886H272.079V288.994H267.591V285.738H265.413V288.268C265.413 288.73 265.126 289.016 264.731 289.016H261.827V290.886H265.28V296.848C265.28 299.246 266.644 300.5 268.911 300.5ZM282.126 300.786C284.722 300.786 287.252 298.96 287.252 295.814V289.786C287.252 286.64 284.722 284.814 282.126 284.814C279.552 284.814 277.022 286.64 277.022 289.786V295.814C277.022 298.96 279.552 300.786 282.126 300.786ZM282.126 298.542C280.52 298.542 279.354 297.354 279.354 295.682V289.918C279.354 288.268 280.52 287.058 282.126 287.058C283.732 287.058 284.898 288.268 284.898 289.918V295.682C284.898 297.354 283.754 298.542 282.126 298.542ZM282.148 293.944C282.808 293.944 283.336 293.416 283.336 292.756C283.336 292.096 282.808 291.568 282.148 291.568C281.488 291.568 280.938 292.096 280.938 292.756C280.938 293.416 281.488 293.944 282.148 293.944ZM292.371 300.5H302.227V298.388H294.725V298.102C294.725 297.112 295.165 296.386 296.595 295.462L299.433 293.724C301.237 292.602 302.161 291.238 302.161 289.346C302.161 286.948 300.247 284.814 297.189 284.814C294.021 284.814 292.349 287.234 292.349 289.5H294.549C294.549 288.136 295.605 287.014 297.145 287.014C298.839 287.014 299.763 288.048 299.763 289.412C299.763 290.578 299.147 291.37 298.223 291.964L295.407 293.724C293.405 294.978 292.371 296.276 292.371 298.322V300.5ZM309.15 303.69H310.492C312.648 303.69 314.144 302.678 314.144 300.302V295.66C314.144 295.044 314.452 294.67 315.09 294.67H315.772V292.734H315.09C314.452 292.734 314.144 292.36 314.144 291.744V287.102C314.144 284.726 312.648 283.714 310.492 283.714H309.15V285.65H310.316C311.416 285.65 311.9 286.156 311.9 287.278V291.876C311.9 293.064 312.362 293.526 312.978 293.636V293.768C312.362 293.878 311.9 294.34 311.9 295.528V300.126C311.9 301.27 311.416 301.754 310.316 301.754H309.15V303.69Z" fill="#222C50"/>
<g filter="url(#filter2_d_1050_701)">
<rect x="320" y="151.5" width="155" height="62" rx="16" fill="white"/>
</g>
<path d="M343.46 193.69H344.802V191.754H343.636C342.536 191.754 342.074 191.27 342.074 190.126V185.528C342.074 184.34 341.612 183.878 340.974 183.768V183.636C341.612 183.526 342.074 183.064 342.074 181.876V177.278C342.074 176.156 342.536 175.65 343.636 175.65H344.802V173.714H343.46C341.304 173.714 339.808 174.726 339.808 177.102V181.744C339.808 182.36 339.5 182.734 338.884 182.734H338.18V184.67H338.884C339.5 184.67 339.808 185.044 339.808 185.66V190.302C339.808 192.678 341.304 193.69 343.46 193.69ZM351.923 190.5H354.783L356.367 178.378H356.499L358.083 190.5H360.965L363.055 175.1H360.833L359.447 187.222H359.293L357.775 175.1H355.091L353.573 187.222H353.441L352.033 175.1H349.811L351.923 190.5ZM371.584 190.786C375.126 190.786 377.678 188.19 377.678 184.758C377.678 181.326 375.148 178.708 371.606 178.708C368.086 178.708 365.534 181.304 365.534 184.758C365.534 188.212 368.064 190.786 371.584 190.786ZM371.584 188.696C369.428 188.696 367.888 187.046 367.888 184.758C367.888 182.492 369.406 180.82 371.584 180.82C373.762 180.82 375.324 182.47 375.324 184.758C375.324 187.024 373.762 188.696 371.584 188.696ZM390.013 181.216H392.037V178.972H390.079C388.429 178.972 387.351 180.072 386.999 180.996H386.845V178.994H381.851V180.886H384.623V188.608H381.543V190.5H391.795V188.608H386.933V184.824C386.933 182.69 388.055 181.216 390.013 181.216ZM403.911 190.5H406.661V188.542H404.263C403.053 188.542 402.591 187.882 402.591 186.782V180.886H407.079V178.994H402.591V175.738H400.413V178.268C400.413 178.73 400.126 179.016 399.731 179.016H396.827V180.886H400.28V186.848C400.28 189.246 401.644 190.5 403.911 190.5ZM417.126 190.786C419.722 190.786 422.252 188.96 422.252 185.814V179.786C422.252 176.64 419.722 174.814 417.126 174.814C414.552 174.814 412.022 176.64 412.022 179.786V185.814C412.022 188.96 414.552 190.786 417.126 190.786ZM417.126 188.542C415.52 188.542 414.354 187.354 414.354 185.682V179.918C414.354 178.268 415.52 177.058 417.126 177.058C418.732 177.058 419.898 178.268 419.898 179.918V185.682C419.898 187.354 418.754 188.542 417.126 188.542ZM417.148 183.944C417.808 183.944 418.336 183.416 418.336 182.756C418.336 182.096 417.808 181.568 417.148 181.568C416.488 181.568 415.938 182.096 415.938 182.756C415.938 183.416 416.488 183.944 417.148 183.944ZM432.123 190.764C435.467 190.764 437.359 188.388 437.359 185.726C437.359 183.174 435.467 181.282 433.025 181.084V180.952L436.853 177.212V175.1H427.547V177.234H433.905V177.366L430.165 181.106V182.998H432.079C433.773 182.998 434.983 184.164 434.983 185.748C434.983 187.442 433.839 188.542 432.123 188.542C430.539 188.542 429.461 187.464 429.417 186.078H427.217C427.217 188.256 428.889 190.764 432.123 190.764ZM444.15 193.69H445.492C447.648 193.69 449.144 192.678 449.144 190.302V185.66C449.144 185.044 449.452 184.67 450.09 184.67H450.772V182.734H450.09C449.452 182.734 449.144 182.36 449.144 181.744V177.102C449.144 174.726 447.648 173.714 445.492 173.714H444.15V175.65H445.316C446.416 175.65 446.9 176.156 446.9 177.278V181.876C446.9 183.064 447.362 183.526 447.978 183.636V183.768C447.362 183.878 446.9 184.34 446.9 185.528V190.126C446.9 191.27 446.416 191.754 445.316 191.754H444.15V193.69Z" fill="#222C50"/>
<path d="M147.222 165.623L147.623 173.778L155.778 173.377L155.377 165.222L147.222 165.623ZM257.278 265.377L256.877 257.222L248.722 257.623L249.123 265.778L257.278 265.377ZM150.828 170.241L252.328 262.241L253.672 260.759L152.172 168.759L150.828 170.241Z" fill="#00C6B0"/>
<path d="M190.189 287.517L183.517 282.811L178.811 289.483L185.483 294.189L190.189 287.517ZM103.67 303.485L184.67 289.485L184.33 287.515L103.33 301.515L103.67 303.485Z" fill="#00C6B0"/>
<path d="M150 112.274L155.774 106.5L150 100.726L144.226 106.5L150 112.274ZM149 56V106.5H151V56H149Z" fill="#00C6B0"/>
<path d="M396.853 156.658L403.658 152.147L399.147 145.342L392.342 149.853L396.853 156.658ZM411.52 79.3012L397.02 150.801L398.98 151.199L413.48 79.6988L411.52 79.3012Z" fill="#00C6B0"/>
<path d="M405.067 321.012L339.757 288.5" stroke="#00C6B0" stroke-width="2"/>
<path d="M224.761 136.073L227.573 143.739L235.239 140.927L232.427 133.261L224.761 136.073ZM323.739 181.927L320.927 174.261L313.261 177.073L316.073 184.739L323.739 181.927ZM229.58 139.407L318.08 180.407L318.92 178.593L230.42 137.593L229.58 139.407Z" fill="#00C6B0"/>
<path d="M406.731 209.094L398.594 209.769L399.269 217.906L407.406 217.231L406.731 209.094ZM335.769 292.906L343.906 292.231L343.231 284.094L335.094 284.769L335.769 292.906ZM402.237 212.854L338.737 287.854L340.263 289.146L403.763 214.146L402.237 212.854Z" fill="#00C6B0"/>
<defs>
<filter id="filter0_d_1050_701" x="67" y="99.5" width="175" height="82" filterUnits="userSpaceOnUse" color-interpolation-filters="sRGB">
<feFlood flood-opacity="0" result="BackgroundImageFix"/>
<feColorMatrix in="SourceAlpha" type="matrix" values="0 0 0 0 0 0 0 0 0 0 0 0 0 0 0 0 0 0 127 0" result="hardAlpha"/>
<feOffset dx="2" dy="2"/>
<feGaussianBlur stdDeviation="5"/>
<feComposite in2="hardAlpha" operator="out"/>
<feColorMatrix type="matrix" values="0 0 0 0 0 0 0 0 0 0 0 0 0 0 0 0 0 0 0.1 0"/>
<feBlend mode="normal" in2="BackgroundImageFix" result="effect1_dropShadow_1050_701"/>
<feBlend mode="normal" in="SourceGraphic" in2="effect1_dropShadow_1050_701" result="shape"/>
</filter>
<filter id="filter1_d_1050_701" x="177" y="253.5" width="175" height="82" filterUnits="userSpaceOnUse" color-interpolation-filters="sRGB">
<feFlood flood-opacity="0" result="BackgroundImageFix"/>
<feColorMatrix in="SourceAlpha" type="matrix" values="0 0 0 0 0 0 0 0 0 0 0 0 0 0 0 0 0 0 127 0" result="hardAlpha"/>
<feOffset dx="2" dy="2"/>
<feGaussianBlur stdDeviation="5"/>
<feComposite in2="hardAlpha" operator="out"/>
<feColorMatrix type="matrix" values="0 0 0 0 0 0 0 0 0 0 0 0 0 0 0 0 0 0 0.1 0"/>
<feBlend mode="normal" in2="BackgroundImageFix" result="effect1_dropShadow_1050_701"/>
<feBlend mode="normal" in="SourceGraphic" in2="effect1_dropShadow_1050_701" result="shape"/>
</filter>
<filter id="filter2_d_1050_701" x="312" y="143.5" width="175" height="82" filterUnits="userSpaceOnUse" color-interpolation-filters="sRGB">
<feFlood flood-opacity="0" result="BackgroundImageFix"/>
<feColorMatrix in="SourceAlpha" type="matrix" values="0 0 0 0 0 0 0 0 0 0 0 0 0 0 0 0 0 0 127 0" result="hardAlpha"/>
<feOffset dx="2" dy="2"/>
<feGaussianBlur stdDeviation="5"/>
<feComposite in2="hardAlpha" operator="out"/>
<feColorMatrix type="matrix" values="0 0 0 0 0 0 0 0 0 0 0 0 0 0 0 0 0 0 0.1 0"/>
<feBlend mode="normal" in2="BackgroundImageFix" result="effect1_dropShadow_1050_701"/>
<feBlend mode="normal" in="SourceGraphic" in2="effect1_dropShadow_1050_701" result="shape"/>
</filter>
</defs>
</svg>
